<?xml version="1.0" encoding="UTF-8" ?>
<!DOCTYPE svg PUBLIC "-//W3C//DTD SVG 1.1//EN" "http://www.w3.org/Graphics/SVG/1.1/DTD/svg11.dtd">
<svg width="166pt" height="154pt" viewBox="0 0 166 154" version="1.1" xmlns="http://www.w3.org/2000/svg">
<g id="#f2f2f2ff">
</g>
<g id="#000000ff">
<path fill="#000000" opacity="1.00" d=" M 50.96 39.85 C 53.48 37.84 56.86 37.63 59.95 37.74 C 71.22 38.15 82.50 37.89 93.78 37.94 C 99.04 44.12 104.30 50.32 109.55 56.52 C 109.57 56.01 109.61 54.97 109.64 54.46 C 119.02 54.47 128.40 54.46 137.78 54.46 C 137.79 71.48 137.79 88.49 137.78 105.50 C 128.62 105.50 119.47 105.50 110.31 105.50 C 109.62 106.51 108.93 107.53 108.25 108.55 C 85.15 108.41 62.03 109.04 38.97 108.07 C 32.47 107.03 29.59 98.69 33.42 93.54 C 28.21 90.37 27.37 82.75 31.80 78.55 C 27.99 74.88 28.04 68.64 31.74 64.89 C 28.16 61.34 27.81 55.06 31.57 51.52 C 35.62 47.49 41.81 49.25 46.90 48.89 C 47.82 45.74 48.13 41.98 50.96 39.85 M 52.58 45.38 C 51.41 49.60 50.28 53.85 49.38 58.14 C 48.63 62.02 54.09 64.56 56.66 61.63 C 58.64 58.59 59.34 54.90 60.78 51.59 C 64.29 52.38 67.90 52.77 71.34 53.84 C 73.22 54.63 72.81 57.45 70.99 58.04 C 68.52 57.97 66.13 57.28 63.72 56.83 C 62.87 59.08 62.04 61.34 61.10 63.55 C 66.47 66.56 67.43 74.29 63.00 78.55 C 67.22 82.64 66.64 89.82 61.88 93.24 C 64.14 96.42 64.44 100.57 62.65 104.04 C 77.03 103.99 91.41 104.01 105.79 103.99 C 107.09 101.75 109.48 99.78 109.31 96.99 C 109.31 85.53 109.33 74.08 109.33 62.62 C 102.80 56.53 97.66 49.06 91.61 42.48 C 80.71 42.50 69.79 42.67 58.89 42.29 C 56.50 42.16 53.22 42.60 52.58 45.38 M 35.98 53.90 C 32.34 55.43 32.74 61.43 36.60 62.38 C 39.54 62.82 42.53 62.51 45.49 62.62 C 44.40 59.60 44.85 56.45 45.71 53.45 C 42.48 53.61 39.12 52.99 35.98 53.90 M 114.17 59.03 C 114.17 73.00 114.17 86.96 114.17 100.93 C 120.51 100.93 126.86 100.93 133.21 100.93 C 133.20 86.96 133.21 73.00 133.21 59.04 C 126.86 59.03 120.51 59.03 114.17 59.03 M 37.23 67.28 C 32.87 67.70 32.11 74.46 36.22 75.92 C 41.41 76.79 46.76 76.05 52.01 76.31 C 54.82 76.11 58.47 77.10 60.41 74.46 C 62.65 71.80 60.50 67.09 56.98 67.26 C 50.40 67.43 43.80 66.84 37.23 67.28 M 36.22 81.24 C 32.78 82.49 32.48 87.85 35.80 89.44 C 38.71 90.54 41.95 89.82 44.99 90.01 C 49.53 89.78 54.19 90.52 58.66 89.60 C 62.96 87.98 61.66 80.82 57.02 80.93 C 50.10 81.00 43.08 80.44 36.22 81.24 M 38.30 95.32 C 34.77 97.34 36.11 103.45 40.23 103.63 C 45.12 103.82 50.03 103.76 54.92 103.67 C 58.40 103.78 60.65 99.26 58.49 96.53 C 56.28 93.53 52.11 94.87 48.96 94.57 C 45.43 94.86 41.62 93.86 38.30 95.32 Z" />
</g>
</svg>
