<?xml version="1.0" encoding="UTF-8" ?>
<!DOCTYPE svg PUBLIC "-//W3C//DTD SVG 1.1//EN" "http://www.w3.org/Graphics/SVG/1.1/DTD/svg11.dtd">
<svg width="166pt" height="154pt" viewBox="0 0 166 154" version="1.1" xmlns="http://www.w3.org/2000/svg">
<g id="#f2f2f2ff">
</g>
<g id="#000000ff">
<path fill="#000000" opacity="1.00" d=" M 72.22 37.94 C 83.50 37.88 94.77 38.14 106.04 37.74 C 109.35 37.60 113.05 37.90 115.57 40.31 C 117.95 42.52 118.22 45.95 119.10 48.89 C 124.21 49.25 130.45 47.48 134.48 51.57 C 138.19 55.13 137.81 61.36 134.27 64.89 C 137.95 68.64 138.01 74.87 134.20 78.55 C 138.62 82.74 137.79 90.35 132.59 93.51 C 135.00 97.20 134.97 102.47 131.65 105.61 C 128.93 108.56 124.68 108.38 121.01 108.30 C 99.94 108.91 78.84 108.45 57.75 108.55 C 57.07 107.53 56.38 106.51 55.69 105.50 C 46.53 105.50 37.37 105.50 28.22 105.50 C 28.22 88.49 28.21 71.47 28.22 54.46 C 37.59 54.46 46.96 54.47 56.34 54.45 C 56.37 54.97 56.44 55.99 56.48 56.51 C 61.70 50.30 66.97 44.12 72.22 37.94 M 74.31 42.51 C 68.35 49.14 63.16 56.53 56.66 62.63 C 56.67 74.69 56.68 86.74 56.70 98.80 C 57.86 100.53 59.03 102.26 60.20 103.99 C 74.58 104.01 88.96 103.99 103.34 104.04 C 101.56 100.56 101.85 96.43 104.11 93.24 C 99.37 89.81 98.78 82.65 102.99 78.55 C 98.57 74.28 99.53 66.56 104.90 63.55 C 103.95 61.34 103.14 59.07 102.27 56.83 C 99.89 57.27 97.53 57.96 95.10 58.03 C 93.15 57.58 92.76 54.53 94.73 53.82 C 98.15 52.77 101.73 52.37 105.22 51.59 C 106.66 54.90 107.36 58.60 109.35 61.63 C 111.93 64.58 117.42 61.98 116.61 58.08 C 115.61 53.62 114.56 49.14 113.19 44.77 C 111.99 42.03 108.48 42.27 106.00 42.31 C 95.44 42.71 84.87 42.45 74.31 42.51 M 120.32 53.44 C 121.19 56.45 121.56 59.61 120.47 62.62 C 123.48 62.50 126.53 62.84 129.51 62.36 C 133.36 61.28 133.59 55.23 129.86 53.82 C 126.75 53.08 123.49 53.58 120.32 53.44 M 32.79 59.03 C 32.79 73.00 32.80 86.96 32.79 100.93 C 39.14 100.93 45.48 100.93 51.83 100.93 C 51.83 86.96 51.83 73.00 51.83 59.03 C 45.49 59.03 39.14 59.03 32.79 59.03 M 107.38 67.57 C 103.56 69.02 104.00 75.26 108.03 76.11 C 113.33 76.57 118.68 76.15 124.00 76.32 C 126.56 76.19 129.86 76.91 131.61 74.50 C 133.98 71.73 131.61 66.97 127.98 67.20 C 121.13 67.14 114.17 67.02 107.38 67.57 M 108.14 81.04 C 103.61 81.78 103.59 89.03 108.09 89.84 C 113.71 90.26 119.36 89.87 125.00 90.03 C 127.42 90.04 130.54 90.31 131.92 87.80 C 133.81 84.98 131.45 80.73 128.05 80.92 C 121.42 80.90 114.76 80.68 108.14 81.04 M 109.16 95.09 C 105.39 96.75 106.20 103.03 110.31 103.58 C 115.66 103.81 121.08 103.90 126.42 103.53 C 131.02 102.62 130.68 95.13 126.00 94.70 C 120.42 94.69 114.64 94.03 109.16 95.09 Z" />
</g>
</svg>
