<?xml version="1.0" encoding="UTF-8" ?>
<!DOCTYPE svg PUBLIC "-//W3C//DTD SVG 1.1//EN" "http://www.w3.org/Graphics/SVG/1.1/DTD/svg11.dtd">
<svg width="180pt" height="166pt" viewBox="0 0 180 166" version="1.1" xmlns="http://www.w3.org/2000/svg">
<g id="#f2f2f2ff">
</g>
<g id="#000000ff">
<path fill="#000000" opacity="1.00" d=" M 26.88 36.03 C 25.14 29.62 30.10 21.95 36.97 21.88 C 61.65 21.80 86.33 21.89 111.00 21.84 C 115.08 21.72 119.35 22.76 122.43 25.55 C 125.61 28.40 126.76 32.83 126.66 36.98 C 126.64 66.17 126.66 95.36 126.65 124.55 C 133.61 124.56 140.57 124.54 147.53 124.56 C 147.30 128.65 147.29 133.21 144.45 136.49 C 142.23 139.32 138.48 140.25 135.04 140.15 C 107.68 140.14 80.32 140.16 52.96 140.14 C 46.58 140.27 40.73 134.36 40.86 127.99 C 40.84 100.43 40.84 72.87 40.86 45.31 C 34.54 46.45 28.41 42.16 26.88 36.03 M 106.56 39.49 C 108.26 42.06 111.63 42.17 113.97 43.84 L 112.98 45.06 C 89.82 45.51 66.62 45.12 43.45 45.25 C 43.46 72.83 43.43 100.41 43.46 127.99 C 43.33 133.45 48.69 137.85 53.96 137.56 C 78.61 137.59 103.26 137.46 127.92 137.62 C 125.16 134.42 123.99 130.24 124.07 126.06 C 123.95 95.68 124.17 65.29 123.97 34.90 C 123.99 28.07 116.46 22.75 110.04 24.96 C 104.47 27.11 102.84 34.99 106.56 39.49 Z" />
<path fill="#000000" opacity="1.00" d=" M 57.83 64.93 C 72.53 64.48 87.27 64.90 101.99 64.73 C 104.90 64.81 108.05 64.23 110.62 65.98 C 108.16 68.02 104.92 67.22 102.01 67.36 C 87.30 67.21 72.58 67.59 57.89 67.18 C 57.88 66.62 57.84 65.50 57.83 64.93 Z" />
<path fill="#000000" opacity="1.00" d=" M 58.02 83.19 C 73.66 82.63 89.35 83.14 105.00 82.93 C 106.67 83.12 108.86 82.40 109.99 84.05 C 109.55 85.92 107.49 85.48 106.05 85.57 C 90.67 85.52 75.30 85.57 59.92 85.54 C 58.66 85.97 56.36 84.46 58.02 83.19 Z" />
<path fill="#000000" opacity="1.00" d=" M 58.14 101.33 C 73.73 100.88 89.36 101.31 104.97 101.13 C 106.48 101.45 108.73 100.44 109.68 102.02 C 110.39 104.22 107.20 103.63 105.99 103.77 C 90.64 103.72 75.29 103.78 59.94 103.74 C 58.47 104.35 56.53 102.50 58.14 101.33 Z" />
<path fill="#000000" opacity="1.00" d=" M 59.01 121.88 C 56.99 122.50 57.23 118.92 59.02 119.41 C 73.34 119.24 87.68 119.43 102.01 119.32 C 104.79 119.38 107.61 119.19 110.35 119.84 C 109.44 122.76 106.31 121.82 104.00 121.98 C 89.01 121.87 74.00 122.07 59.01 121.88 Z" />
</g>
</svg>
