<?xml version="1.0" encoding="UTF-8" ?>
<!DOCTYPE svg PUBLIC "-//W3C//DTD SVG 1.1//EN" "http://www.w3.org/Graphics/SVG/1.1/DTD/svg11.dtd">
<svg width="166pt" height="148pt" viewBox="0 0 166 148" version="1.1" xmlns="http://www.w3.org/2000/svg">
<g id="#f2f2f2ff">
</g>
<g id="#000000ff">
<path fill="#000000" opacity="1.00" d=" M 71.38 21.70 C 75.88 20.46 80.54 21.90 85.05 22.40 C 91.08 23.66 97.60 24.50 102.69 28.23 C 107.79 33.20 114.74 35.40 120.39 39.60 C 125.56 43.18 129.83 48.39 131.10 54.67 C 133.28 64.75 136.64 75.16 134.29 85.53 C 132.84 92.28 128.87 98.20 124.01 102.99 C 116.24 110.91 107.15 118.01 96.37 121.21 C 89.13 123.22 81.70 125.56 74.10 124.68 C 63.91 123.65 54.56 119.09 45.58 114.47 C 38.85 111.03 34.61 104.36 31.16 97.89 C 27.71 90.98 24.78 83.73 23.02 76.21 C 25.61 64.14 28.99 52.15 33.71 40.72 C 35.51 37.10 37.10 32.28 41.57 31.31 C 51.48 28.03 61.33 24.55 71.38 21.70 Z" />
</g>
</svg>
