<?xml version="1.0" encoding="UTF-8" ?>
<!DOCTYPE svg PUBLIC "-//W3C//DTD SVG 1.1//EN" "http://www.w3.org/Graphics/SVG/1.1/DTD/svg11.dtd">
<svg width="198pt" height="194pt" viewBox="0 0 198 194" version="1.1" xmlns="http://www.w3.org/2000/svg">
<g id="#f2f2f2ff">
<path fill="#f2f2f2" opacity="1.00" d=" M 96.32 97.38 C 97.95 95.75 101.04 96.73 101.41 99.01 C 102.08 101.50 98.92 103.64 96.84 102.21 C 95.08 101.30 94.87 98.66 96.32 97.38 Z" />
<path fill="#f2f2f2" opacity="1.00" d=" M 55.15 122.06 C 61.19 119.99 68.15 124.60 68.82 130.88 C 69.93 137.15 64.26 143.28 57.98 142.99 C 51.87 143.06 46.67 137.06 47.53 131.02 C 47.98 126.86 51.15 123.20 55.15 122.06 Z" />
<path fill="#f2f2f2" opacity="1.00" d=" M 132.22 122.20 C 138.72 119.66 146.61 125.00 146.53 132.01 C 146.89 138.52 140.30 144.24 133.91 142.81 C 127.77 141.89 123.41 134.98 125.57 129.07 C 126.57 125.92 129.10 123.30 132.22 122.20 Z" />
</g>
<g id="#000000ff">
<path fill="#000000" opacity="1.00" d=" M 57.22 57.78 C 52.38 50.35 54.95 39.71 62.29 34.91 C 73.11 51.23 83.94 67.55 94.77 83.88 C 91.39 88.97 88.02 94.07 84.62 99.15 C 75.50 85.35 66.28 71.62 57.22 57.78 Z" />
<path fill="#000000" opacity="1.00" d=" M 131.71 34.91 C 136.88 38.44 140.02 44.79 139.15 51.06 C 138.81 54.98 136.57 58.31 134.40 61.46 C 124.27 76.65 114.24 91.90 104.08 107.07 C 103.18 109.33 100.72 107.97 99.01 107.76 C 95.46 106.88 92.09 108.89 89.67 111.31 C 90.81 112.85 92.51 114.85 91.08 116.78 C 85.58 125.32 79.88 133.73 74.27 142.20 C 69.68 149.27 60.24 152.84 52.18 150.12 C 44.52 147.74 39.02 139.94 39.31 131.92 C 39.34 123.14 46.32 114.88 55.08 113.67 C 61.00 112.65 67.07 114.84 71.51 118.77 C 73.84 115.30 76.00 111.71 78.48 108.34 C 79.60 106.55 81.89 107.04 83.60 107.42 C 99.62 83.24 115.69 59.09 131.71 34.91 M 96.32 97.38 C 94.87 98.66 95.08 101.30 96.84 102.21 C 98.92 103.64 102.08 101.50 101.41 99.01 C 101.04 96.73 97.95 95.75 96.32 97.38 M 55.15 122.06 C 51.15 123.20 47.98 126.86 47.53 131.02 C 46.67 137.06 51.87 143.06 57.98 142.99 C 64.26 143.28 69.93 137.15 68.82 130.88 C 68.15 124.60 61.19 119.99 55.15 122.06 Z" />
<path fill="#000000" opacity="1.00" d=" M 109.37 105.84 C 109.62 106.24 110.12 107.03 110.37 107.43 C 112.07 107.01 114.37 106.57 115.51 108.33 C 118.00 111.70 120.15 115.30 122.49 118.77 C 127.19 114.56 133.81 112.41 140.04 113.89 C 148.69 115.65 155.20 124.30 154.68 133.10 C 154.46 141.01 148.65 148.39 140.98 150.37 C 133.11 152.60 124.18 149.02 119.75 142.22 C 114.27 134.02 108.82 125.80 103.38 117.58 C 101.95 115.98 102.04 113.25 104.03 112.15 C 106.37 110.56 107.94 108.22 109.37 105.84 M 132.22 122.20 C 129.10 123.30 126.57 125.92 125.57 129.07 C 123.41 134.98 127.77 141.89 133.91 142.81 C 140.30 144.24 146.89 138.52 146.53 132.01 C 146.61 125.00 138.72 119.66 132.22 122.20 Z" />
</g>
</svg>
